<svg width="80" height="31" viewBox="0 0 80 31" fill="none" xmlns="http://www.w3.org/2000/svg">
<g id="logo">
<g id="group">
<g id="Union">
<path d="M35.0008 19.0258C35.5555 19.541 35.6348 20.3139 35.0999 20.8489C34.6244 21.3245 33.8517 21.2651 33.2573 20.8687C32.663 20.4724 32.1875 20.195 31.3553 20.195C30.7808 20.195 30.226 20.3337 30.226 20.8489C30.226 21.3245 30.543 21.5227 31.0582 21.6812L32.6431 22.137C34.2281 22.5928 35.8131 23.4251 35.8131 25.1689C35.8131 27.2695 33.9904 28.1216 31.6723 28.1216C29.81 28.1216 28.2052 27.6856 27.4127 26.6552C26.9174 25.9814 26.8381 25.2086 27.4325 24.7131C28.0269 24.1979 28.9184 24.3366 29.493 24.9906C30.0477 25.6049 30.86 25.8823 31.5931 25.8823C32.3261 25.8823 32.9403 25.6445 32.9403 25.1491C32.9403 24.6933 32.4054 24.5546 31.8705 24.3763L30.1666 23.8808C28.6807 23.4449 27.3533 22.5928 27.3533 20.8489C27.3533 18.7484 29.3543 17.9359 31.4544 17.9359C33.1385 17.9359 34.2876 18.3917 35.0008 19.0258Z" fill="#929197"/>
<path d="M36.8068 26.4372V14.3689C36.8068 13.4375 37.3814 12.843 38.3126 12.843C39.2437 12.843 39.7985 13.4375 39.7985 14.3689V19.224C40.2938 18.4313 41.4429 17.9359 42.4731 17.9359C44.6525 17.9359 46.0988 19.5212 46.0988 21.7208V26.4372C46.0988 27.3686 45.5242 27.9432 44.5931 27.9432C43.6619 27.9432 43.1071 27.3686 43.1071 26.4372V21.9785C43.1071 21.0867 42.4137 20.3733 41.4429 20.3733C40.5315 20.3733 39.7985 21.0273 39.7985 21.9586V26.4372C39.7985 27.3686 39.2437 27.9432 38.3126 27.9432C37.3814 27.9432 36.8068 27.3686 36.8068 26.4372Z" fill="#929197"/>
<path d="M56.9685 19.6401V26.4966C56.9685 27.428 56.4137 27.9432 55.4825 27.9432C54.6504 27.9432 54.2344 27.4082 54.1155 26.7146C53.6994 27.5667 52.7683 28.1216 51.3418 28.1216C48.786 28.1216 47.0821 25.8823 47.0821 22.9891C47.0821 20.0959 48.786 17.9359 51.2427 17.9359C52.6692 17.9359 53.64 18.4907 54.1155 19.2636C54.2145 18.5898 54.6504 18.0944 55.5023 18.0944C56.4335 18.0944 56.9685 18.7087 56.9685 19.6401ZM50.0143 23.0287C50.0143 24.5546 50.8465 25.6643 52.0748 25.6643C53.3032 25.6643 54.0957 24.5546 54.0957 23.0287C54.0957 21.5029 53.3032 20.3931 52.0748 20.3931C50.8465 20.3931 50.0143 21.5029 50.0143 23.0287Z" fill="#929197"/>
<path d="M62.6422 20.4328C61.8101 20.4328 61.3544 21.1065 61.3544 22.0577V26.4372C61.3544 27.3686 60.7997 27.9432 59.8685 27.9432C58.9373 27.9432 58.3627 27.3686 58.3627 26.4372V19.6203C58.3627 18.6889 58.8977 18.0944 59.8289 18.0944C60.661 18.0944 61.1761 18.5106 61.2752 19.4816C61.4931 18.57 62.3648 17.9359 63.4149 17.9359C63.9696 17.9359 64.4253 18.0151 64.9404 18.2529C65.5348 18.5304 65.8716 19.1249 65.5942 19.8383C65.2971 20.5517 64.6432 20.8093 63.8904 20.6309C63.4941 20.5318 63.0979 20.4328 62.6422 20.4328Z" fill="#929197"/>
<path d="M68.007 21.8199H72.1676C72.1676 20.8885 71.1968 20.1751 70.0873 20.1751C68.9778 20.1751 68.007 20.8885 68.007 21.8199ZM74.129 26.9128C73.2176 27.7649 71.8704 28.1216 70.3647 28.1216C67.0164 28.1216 65.2135 25.9814 65.2135 22.9693C65.2135 20.0562 67.1154 17.9359 70.0873 17.9359C73.1186 17.9359 74.8422 19.9968 74.8422 22.1964C74.8422 23.2863 74.4658 23.7818 73.3761 23.7818H68.007C68.007 24.8915 69.0372 25.8229 70.3647 25.8229C71.3949 25.8229 72.0289 25.4662 72.6629 24.9509C73.2176 24.4753 74.0299 24.4555 74.5054 25.0302C75.0007 25.5851 74.7234 26.3579 74.129 26.9128Z" fill="#929197"/>
</g>
<g id="Union_2">
<path d="M26.974 12.9632C26.8028 13.0217 26.6488 13.135 26.5407 13.2971L26.5397 13.2986L26.5332 13.3082C26.5309 13.3117 26.528 13.316 26.5245 13.321C26.5191 13.329 26.5124 13.3388 26.5043 13.3504C26.4782 13.3883 26.4387 13.4448 26.3873 13.5162C26.2845 13.6594 26.1349 13.8612 25.951 14.0921C25.5781 14.56 25.0849 15.1204 24.5675 15.5561C24.0833 15.9638 23.1437 16.4527 22.3055 16.4527C21.9161 16.4527 21.5757 16.3488 21.2871 16.1053C21.0335 15.8913 20.763 15.5212 20.5563 14.8812C20.7448 14.8632 20.9334 14.8252 21.1199 14.763C22.1903 14.4062 23.1283 13.8891 23.6725 13.1208C24.2703 12.2768 24.2898 11.2834 23.814 10.2922C23.4829 9.60244 22.8229 9.22986 22.1616 9.12758C21.4968 9.02476 20.7657 9.17662 20.1369 9.59058C19.2692 10.1619 18.6807 11.1513 18.5657 12.5125C18.0268 12.1666 17.5105 11.7415 17.0958 11.359C16.6503 10.9482 16.1077 11.1069 15.8513 11.2872C15.595 11.4674 15.2654 11.9202 15.4938 12.4755C16.2111 14.2193 16.2932 15.5626 16.1249 16.3407C16.0438 16.7156 15.9225 16.8848 15.8651 16.9401C15.8586 16.9365 15.8465 16.9291 15.829 16.9154C15.8005 16.8931 15.7626 16.8581 15.7167 16.8054C15.6229 16.6977 15.5178 16.542 15.4062 16.3352C15.1822 15.9199 14.9779 15.3857 14.7968 14.8314C14.6468 14.3722 14.5216 13.9276 14.4155 13.551C14.3943 13.4757 14.3738 13.403 14.3541 13.3335C14.2976 13.1349 14.2418 12.9428 14.1912 12.7997C14.1684 12.7352 14.1315 12.6359 14.0799 12.5425C14.0581 12.503 14.0001 12.4011 13.8972 12.3038C13.8089 12.2204 13.479 11.9552 13.0222 12.1074C12.6511 12.2311 12.4978 12.5417 12.4639 12.6104L12.4627 12.6127C12.4065 12.7264 12.3696 12.8456 12.345 12.933C12.3018 13.0862 12.2567 13.2903 12.2088 13.5067C12.2009 13.5428 12.1928 13.5793 12.1847 13.6158C12.0652 14.1533 11.8898 14.913 11.5681 15.8781C11.457 16.2112 11.3645 16.473 11.2769 16.6793C11.2359 16.7757 11.2003 16.8495 11.1703 16.9054C10.9958 16.7318 10.8032 16.3792 10.6635 15.7791C10.5033 15.0913 10.4588 14.2733 10.4873 13.5608C10.528 12.5449 11.0314 11.4931 11.269 11.1197C11.522 10.7221 11.4048 10.1946 11.0072 9.94154C10.6095 9.68849 10.082 9.80571 9.82896 10.2034C9.49757 10.7241 8.83872 12.0701 8.78182 13.4926C8.74936 14.304 8.79574 15.2843 9.00107 16.1662C9.19497 16.999 9.58376 17.9765 10.4214 18.4687L10.4578 18.4901L10.4961 18.5078C10.7848 18.641 11.1369 18.7375 11.5176 18.6675C11.9144 18.5946 12.2028 18.3673 12.4039 18.1232C12.5943 17.8922 12.7346 17.6135 12.848 17.3464C12.9642 17.0726 13.0749 16.7552 13.1874 16.4178C13.2483 16.235 13.3044 16.059 13.3561 15.8899C13.5128 16.3208 13.6948 16.7578 13.904 17.1456C14.1761 17.6499 14.5934 18.2646 15.2245 18.5228C15.838 18.7738 16.4748 18.6638 16.9628 18.2478C17.4043 17.8715 17.6631 17.3028 17.7932 16.7016C17.9524 15.9654 17.949 15.0513 17.7445 14.0127C17.889 14.1029 18.0361 14.1892 18.185 14.2698C18.3492 14.3587 18.5236 14.4453 18.7059 14.5243C18.7343 14.6647 18.7666 14.8076 18.8029 14.9529C19.0769 16.0487 19.543 16.8669 20.1863 17.4098C20.8369 17.9587 21.59 18.1596 22.3055 18.1596C23.6771 18.1596 24.9929 17.4293 25.667 16.8617C26.1146 16.4847 26.5295 16.0497 26.8767 15.6487C26.0386 20.9121 21.4623 24.9358 15.9425 24.9358C13.8641 24.9358 11.9195 24.3654 10.2579 23.373C9.98541 23.2103 9.62238 23.3195 9.53905 23.6257C9.38043 24.2086 9.36467 24.7366 9.44592 25.3511C9.49362 25.7118 9.0421 25.929 8.82483 25.6371C4.87109 20.3259 4.87109 15.9244 4.87109 13.9073C4.87109 7.81633 9.82794 2.87866 15.9425 2.87866C21.7379 2.87866 26.4932 7.31419 26.974 12.9632Z" fill="#5C3BF3"/>
<path d="M20.5802 13.1437C20.4879 13.1745 20.3783 13.1893 20.2517 13.1854C20.2029 11.8992 20.6867 11.2722 21.0755 11.0162C21.3611 10.8282 21.6664 10.7782 21.9007 10.8144C22.1386 10.8512 22.2406 10.9587 22.2752 11.0309C22.531 11.5637 22.459 11.881 22.2796 12.1342C22.0466 12.4632 21.5215 12.83 20.5802 13.1437Z" fill="#5C3BF3"/>
</g>
</g>
</g>
</svg>
