<svg width="24" height="24" viewBox="0 0 24 24" fill="none" xmlns="http://www.w3.org/2000/svg">
<circle cx="12" cy="12" r="12" fill="black"/>
<path d="M13.4821 6.81473C13.4821 5.99653 12.8188 5.33325 12.0007 5.33325C11.1825 5.33325 10.5192 5.99653 10.5192 6.81473V10.5184H6.81547C5.99727 10.5184 5.33398 11.1817 5.33398 11.9999C5.33398 12.8181 5.99727 13.4814 6.81547 13.4814H10.5192V17.1851C10.5192 18.0033 11.1825 18.6666 12.0006 18.6666C12.8188 18.6666 13.4821 18.0033 13.4821 17.1851V13.4814H17.1858C18.004 13.4814 18.6673 12.8181 18.6673 11.9999C18.6673 11.1817 18.004 10.5184 17.1858 10.5184H13.4821V6.81473Z" fill="white"/>
</svg>
