<svg width="24" height="24" viewBox="0 0 24 24" fill="none" xmlns="http://www.w3.org/2000/svg">
<path d="M17.8895 5.18992C18.1433 4.93607 18.5549 4.93604 18.8088 5.18986C19.0626 5.44368 19.0626 5.85524 18.8088 6.1091L12.9188 11.9999L18.809 17.891C19.0628 18.1448 19.0628 18.5564 18.8089 18.8102C18.5551 19.064 18.1435 19.064 17.8897 18.8101L11.9996 12.9193L6.10965 18.81C5.85583 19.0639 5.44427 19.0639 5.19041 18.8101C4.93655 18.5563 4.93653 18.1447 5.19035 17.8909L11.0804 11.9999L5.19052 6.1092C4.9367 5.85534 4.93672 5.44378 5.19058 5.18996C5.44444 4.93613 5.856 4.93616 6.10982 5.19002L11.9996 11.0806L17.8895 5.18992Z" fill="black"/>
</svg>
