<svg width="24" height="24" viewBox="0 0 24 24" fill="none" xmlns="http://www.w3.org/2000/svg">
<path d="M24 12C24 18.6274 18.6274 24 12 24C5.37258 24 0 18.6274 0 12C0 5.37258 5.37258 0 12 0C18.6274 0 24 5.37258 24 12Z" fill="black"/>
<path d="M17.4943 8.94763C18.1686 8.27332 18.1686 7.18004 17.4943 6.50573C16.82 5.83142 15.7267 5.83142 15.0524 6.50573L12 9.5581L8.94763 6.50573C8.27332 5.83142 7.18004 5.83142 6.50573 6.50573C5.83142 7.18004 5.83142 8.27332 6.50573 8.94763L9.5581 12L6.50573 15.0524C5.83142 15.7267 5.83142 16.82 6.50573 17.4943C7.18004 18.1686 8.27332 18.1686 8.94763 17.4943L12 14.4419L15.0524 17.4943C15.7267 18.1686 16.82 18.1686 17.4943 17.4943C18.1686 16.82 18.1686 15.7267 17.4943 15.0524L14.4419 12L17.4943 8.94763Z" fill="white"/>
</svg>
