<svg width="24" height="24" viewBox="0 0 24 24" fill="none" xmlns="http://www.w3.org/2000/svg">
<path fill-rule="evenodd" clip-rule="evenodd" d="M12 21C16.9706 21 21 16.9706 21 12C21 7.02944 16.9706 3 12 3C7.02944 3 3 7.02944 3 12C3 16.9706 7.02944 21 12 21ZM9.80017 10.7013C10.1592 10.7013 10.4502 10.3054 10.4502 9.81709C10.4502 9.32874 10.1592 8.93286 9.80017 8.93286C9.44119 8.93286 9.15017 9.32874 9.15017 9.81709C9.15017 10.3054 9.44119 10.7013 9.80017 10.7013ZM14.1986 10.7013C14.5576 10.7013 14.8486 10.3054 14.8486 9.81709C14.8486 9.32874 14.5576 8.93286 14.1986 8.93286C13.8396 8.93286 13.5486 9.32874 13.5486 9.81709C13.5486 10.3054 13.8396 10.7013 14.1986 10.7013ZM8.37004 12.3237C8.71229 12.2153 9.07756 12.405 9.18589 12.7472C9.52269 13.8113 10.6835 14.6329 12.0002 14.6329C13.3303 14.6329 14.4762 13.8602 14.8124 12.7543C14.9168 12.4108 15.2798 12.217 15.6233 12.3215C15.9668 12.4259 16.1606 12.789 16.0561 13.1324C15.5234 14.8848 13.7921 15.9329 12.0002 15.9329C10.195 15.9329 8.47687 14.8152 7.94649 13.1395C7.83816 12.7973 8.02779 12.432 8.37004 12.3237Z" fill="black"/>
</svg>
