<svg width="24" height="24" viewBox="0 0 24 24" fill="none" xmlns="http://www.w3.org/2000/svg">
<path d="M10.0309 15.7712C9.67187 15.7712 9.38086 16.0623 9.38086 16.4212C9.38086 16.7802 9.67187 17.0712 10.0309 17.0712H13.9645C14.3235 17.0712 14.6145 16.7802 14.6145 16.4212C14.6145 16.0623 14.3235 15.7712 13.9645 15.7712H10.0309Z" fill="black"/>
<path fill-rule="evenodd" clip-rule="evenodd" d="M11.5393 3.1887C11.7931 2.93515 12.2044 2.93515 12.4581 3.1887L21.3088 12.0312C21.5628 12.2849 21.563 12.6965 21.3093 12.9504C21.0555 13.2044 20.644 13.2046 20.39 12.9508L20.0238 12.585V18.3512C20.0238 19.8147 18.8374 21.0012 17.3738 21.0012H6.62266C5.1591 21.0012 3.97266 19.8147 3.97266 18.3512V12.586L3.60745 12.9508C3.35349 13.2046 2.94194 13.2044 2.68821 12.9504C2.43449 12.6965 2.43468 12.2849 2.68864 12.0312L11.5393 3.1887ZM11.9987 4.56735L18.7238 11.2862V18.3512C18.7238 19.0967 18.1194 19.7012 17.3738 19.7012H6.62266C5.87707 19.7012 5.27266 19.0967 5.27266 18.3512V11.2872L11.9987 4.56735Z" fill="black"/>
</svg>
