<svg width="24" height="24" viewBox="0 0 24 24" fill="none" xmlns="http://www.w3.org/2000/svg">
<path fill-rule="evenodd" clip-rule="evenodd" d="M11.5393 3.18895C11.7931 2.93539 12.2044 2.93539 12.4581 3.18895L21.3088 12.0314C21.5628 12.2851 21.563 12.6967 21.3093 12.9507C21.0555 13.2046 20.644 13.2048 20.39 12.9511L20.0238 12.5852V18.3514C20.0238 19.815 18.8374 21.0014 17.3738 21.0014H6.62266C5.1591 21.0014 3.97266 19.815 3.97266 18.3514V12.5862L3.60745 12.9511C3.35349 13.2048 2.94194 13.2046 2.68821 12.9507C2.43449 12.6967 2.43468 12.2851 2.68864 12.0314L11.5393 3.18895ZM10.0309 15.7715C9.67187 15.7715 9.38086 16.0625 9.38086 16.4215C9.38086 16.7805 9.67187 17.0715 10.0309 17.0715H13.9645C14.3235 17.0715 14.6145 16.7805 14.6145 16.4215C14.6145 16.0625 14.3235 15.7715 13.9645 15.7715H10.0309Z" fill="black"/>
</svg>
