<svg width="24" height="24" viewBox="0 0 24 24" fill="none" xmlns="http://www.w3.org/2000/svg">
<path fill-rule="evenodd" clip-rule="evenodd" d="M10.9524 5.03027C11.3549 5.34269 11.7089 5.71643 12.0008 6.13775C12.2927 5.71643 12.6466 5.34269 13.0492 5.03027C13.882 4.38393 14.9226 4 16.0516 4C18.7854 4 21.0016 6.25137 21.0016 9.02857C21.0016 9.09489 21.0003 9.1609 20.9978 9.22659C20.8376 16.4089 12 20 12 20C12 20 3 16.3429 3 9.02857C3 6.25137 5.21619 4 7.95 4C9.07894 4 10.1196 4.38393 10.9524 5.03027ZM12.0008 7.63775C11.5087 7.63775 11.048 7.39643 10.7678 6.99197C10.1365 6.08082 9.10565 5.5 7.95 5.5C6.0668 5.5 4.5 7.05744 4.5 9.02857C4.5 12.0235 6.34152 14.3828 8.44603 16.0931C9.48 16.9334 10.5218 17.5693 11.3083 17.9954C11.5736 18.1391 11.8077 18.2579 12 18.3515C12.1872 18.2604 12.4139 18.1455 12.6705 18.0069C13.4449 17.5886 14.4728 16.964 15.4979 16.1384C17.5855 14.4571 19.4325 12.1354 19.4982 9.19313L19.4989 9.16944C19.5007 9.1228 19.5016 9.07584 19.5016 9.02857C19.5016 7.05744 17.9348 5.5 16.0516 5.5C14.8959 5.5 13.865 6.08081 13.2338 6.99197C12.9536 7.39643 12.4928 7.63775 12.0008 7.63775Z" fill="black"/>
</svg>
