<svg width="24" height="24" viewBox="0 0 24 24" fill="none" xmlns="http://www.w3.org/2000/svg">
<path d="M7.05055 16.9498C5.87898 15.7782 5.87898 13.8787 7.05055 12.7072L8.22213 11.5356C8.61265 11.1451 8.61265 10.5119 8.22213 10.1214C7.8316 9.73085 7.19844 9.73085 6.80791 10.1214L5.63634 11.293C3.68372 13.2456 3.68372 16.4114 5.63634 18.364C7.58896 20.3166 10.7548 20.3166 12.7074 18.364L14.0358 17.0356C14.4264 16.6451 14.4264 16.0119 14.0358 15.6214C13.6453 15.2309 13.0121 15.2309 12.6216 15.6214L11.2932 16.9498C10.1216 18.1214 8.22213 18.1214 7.05055 16.9498Z" fill="black"/>
<path d="M10.3079 6.62138C9.91739 7.0119 9.91739 7.64507 10.3079 8.03559C10.6984 8.42612 11.3316 8.42612 11.7221 8.03559L12.7074 7.05031C13.879 5.87874 15.7785 5.87874 16.95 7.05031C18.1216 8.22188 18.1216 10.1214 16.95 11.293L16.1216 12.1214C15.7311 12.5119 15.7311 13.1451 16.1216 13.5356C16.5121 13.9261 17.1453 13.9261 17.5358 13.5356L18.3643 12.7072C20.3169 10.7545 20.3169 7.58872 18.3643 5.6361C16.4116 3.68348 13.2458 3.68347 11.2932 5.6361L10.3079 6.62138Z" fill="black"/>
<path d="M15.2221 10.5356C15.6127 10.1451 15.6127 9.5119 15.2221 9.12138C14.8316 8.73085 14.1984 8.73085 13.8079 9.12138L9.80791 13.1214C9.41739 13.5119 9.41739 14.1451 9.80791 14.5356C10.1984 14.9261 10.8316 14.9261 11.2221 14.5356L15.2221 10.5356Z" fill="black"/>
</svg>
