<svg width="24" height="24" viewBox="0 0 24 24" fill="none" xmlns="http://www.w3.org/2000/svg">
<path d="M9.49994 3.75839C10.24 3.26392 11.11 3 12 3C13.1935 3 14.3381 3.47411 15.182 4.31802C16.0259 5.16193 16.5 6.30652 16.5 7.5C16.5 8.39002 16.2361 9.26004 15.7416 10.0001C15.2471 10.7401 14.5443 11.3169 13.7221 11.6575C12.8998 11.9981 11.995 12.0872 11.1221 11.9135C10.2492 11.7399 9.44736 11.3113 8.81802 10.682C8.18869 10.0526 7.7601 9.25082 7.58647 8.37791C7.41283 7.50499 7.50195 6.60019 7.84255 5.77792C8.18314 4.95566 8.75992 4.25285 9.49994 3.75839Z" fill="black"/>
<path d="M8.25 13.125H15.75C17.1424 13.125 18.4777 13.6695 19.4623 14.6387C20.4469 15.6078 21 16.9223 21 18.293V20.0156C21 20.1449 20.9741 20.2729 20.9239 20.3923C20.8736 20.5118 20.8 20.6203 20.7071 20.7117C20.6142 20.8031 20.504 20.8756 20.3827 20.9251C20.2614 20.9745 20.1313 21 20 21H4C3.73478 21 3.48043 20.8963 3.29289 20.7117C3.10536 20.5271 3 20.2767 3 20.0156V18.293C3 16.9223 3.55312 15.6078 4.53769 14.6387C5.52226 13.6695 6.85761 13.125 8.25 13.125Z" fill="black"/>
</svg>
