<svg width="24" height="24" viewBox="0 0 24 24" fill="none" xmlns="http://www.w3.org/2000/svg">
<path fill-rule="evenodd" clip-rule="evenodd" d="M12 3C11.11 3 10.24 3.26392 9.49994 3.75839C8.75992 4.25285 8.18314 4.95566 7.84255 5.77792C7.50195 6.60019 7.41283 7.50499 7.58647 8.37791C7.7601 9.25082 8.18869 10.0526 8.81802 10.682C9.44736 11.3113 10.2492 11.7399 11.1221 11.9135C11.995 12.0872 12.8998 11.9981 13.7221 11.6575C14.5443 11.3169 15.2471 10.7401 15.7416 10.0001C16.2361 9.26004 16.5 8.39001 16.5 7.5C16.5 6.30652 16.0259 5.16193 15.182 4.31802C14.3381 3.47411 13.1935 3 12 3ZM12.0004 4.2749C12.6382 4.2749 13.2618 4.46404 13.7921 4.81841C14.3225 5.17278 14.7358 5.67646 14.9799 6.26575C15.224 6.85504 15.2879 7.50348 15.1634 8.12907C15.039 8.75466 14.7318 9.3293 14.2808 9.78032C13.8298 10.2313 13.2551 10.5385 12.6296 10.6629C12.004 10.7874 11.3555 10.7235 10.7662 10.4794C10.1769 10.2353 9.67327 9.82197 9.3189 9.29162C8.96453 8.76127 8.77539 8.13775 8.77539 7.4999C8.77539 6.64458 9.11516 5.82429 9.71997 5.21948C10.3248 4.61468 11.1451 4.2749 12.0004 4.2749Z" fill="black"/>
<path fill-rule="evenodd" clip-rule="evenodd" d="M15.75 13.125H8.25C6.85761 13.125 5.52226 13.6695 4.53769 14.6387C3.55312 15.6078 3 16.9223 3 18.293V20.0156C3 20.2767 3.10536 20.5271 3.29289 20.7117C3.48043 20.8963 3.73478 21 4 21H20C20.1313 21 20.2614 20.9745 20.3827 20.9251C20.504 20.8756 20.6142 20.8031 20.7071 20.7117C20.8 20.6203 20.8736 20.5118 20.9239 20.3923C20.9741 20.2729 21 20.1449 21 20.0156V18.293C21 16.9223 20.4469 15.6078 19.4623 14.6387C18.4777 13.6695 17.1424 13.125 15.75 13.125ZM15.8508 14.4225C16.8715 14.4238 17.85 14.8414 18.5718 15.5838C19.2935 16.3261 19.6995 17.3326 19.7008 18.3825V19.7025H4.30078V18.3825C4.30202 17.3326 4.70804 16.3261 5.42978 15.5838C6.15153 14.8414 7.13008 14.4238 8.15078 14.4225H15.8508Z" fill="black"/>
</svg>
