<svg width="24" height="24" viewBox="0 0 24 24" fill="none" xmlns="http://www.w3.org/2000/svg">
<path fill-rule="evenodd" clip-rule="evenodd" d="M15.2091 16.1269C14.0246 17.1065 12.5049 17.6952 10.8476 17.6952C7.06579 17.6952 4 14.6295 4 10.8476C4 7.06578 7.06579 4 10.8476 4C14.6295 4 17.6953 7.06578 17.6953 10.8476C17.6953 12.5041 17.1071 14.0232 16.1282 15.2075L19.811 18.891C20.0648 19.1448 20.0647 19.5564 19.8109 19.8102C19.557 20.064 19.1454 20.064 18.8916 19.8101L15.2091 16.1269ZM16.3953 10.8476C16.3953 13.9115 13.9115 16.3952 10.8476 16.3952C7.78376 16.3952 5.3 13.9115 5.3 10.8476C5.3 7.78376 7.78376 5.3 10.8476 5.3C13.9115 5.3 16.3953 7.78376 16.3953 10.8476Z" fill="black"/>
</svg>
