<svg width="24" height="24" viewBox="0 0 24 24" fill="none" xmlns="http://www.w3.org/2000/svg">
<path d="M9.65001 12C9.29102 12 9.00001 12.291 9.00001 12.65C9.00001 13.009 9.29102 13.3 9.65001 13.3H14.35C14.709 13.3 15 13.009 15 12.65C15 12.291 14.709 12 14.35 12H9.65001Z" fill="black"/>
<path fill-rule="evenodd" clip-rule="evenodd" d="M2.34961 5.0001C2.34961 4.08883 3.08834 3.3501 3.99961 3.3501H19.9996C20.9109 3.3501 21.6496 4.08883 21.6496 5.0001V8.0001C21.6496 8.68057 21.2377 9.26483 20.6496 9.51713V19.0001C20.6496 19.9114 19.9109 20.6501 18.9996 20.6501H4.99961C4.08834 20.6501 3.34961 19.9114 3.34961 19.0001V9.51713C2.76153 9.26483 2.34961 8.68057 2.34961 8.0001V5.0001ZM4.64961 9.6501H19.3496V19.0001C19.3496 19.1934 19.1929 19.3501 18.9996 19.3501H4.99961C4.80631 19.3501 4.64961 19.1934 4.64961 19.0001V9.6501ZM3.99961 4.6501C3.80631 4.6501 3.64961 4.8068 3.64961 5.0001V8.0001C3.64961 8.1934 3.80631 8.3501 3.99961 8.3501H19.9996C20.1929 8.3501 20.3496 8.1934 20.3496 8.0001V5.0001C20.3496 4.8068 20.1929 4.6501 19.9996 4.6501H3.99961Z" fill="black"/>
</svg>
