<svg width="24" height="24" viewBox="0 0 24 24" fill="none" xmlns="http://www.w3.org/2000/svg">
<path fill-rule="evenodd" clip-rule="evenodd" d="M2.34961 4.99985C2.34961 4.08858 3.08834 3.34985 3.99961 3.34985H19.9996C20.9109 3.34985 21.6496 4.08858 21.6496 4.99985V7.99985C21.6496 8.68032 21.2377 9.26458 20.6496 9.51689V18.9999C20.6496 19.9111 19.9109 20.6499 18.9996 20.6499H4.99961C4.08834 20.6499 3.34961 19.9111 3.34961 18.9999V9.51689C2.76153 9.26458 2.34961 8.68032 2.34961 7.99985V4.99985ZM9.65 12C9.29101 12 9 12.291 9 12.65C9 13.009 9.29101 13.3 9.65 13.3H14.35C14.709 13.3 15 13.009 15 12.65C15 12.291 14.709 12 14.35 12H9.65Z" fill="black"/>
</svg>
